<?xml version="1.0" standalone="no"?><!DOCTYPE svg PUBLIC "-//W3C//DTD SVG 1.1//EN" "http://www.w3.org/Graphics/SVG/1.1/DTD/svg11.dtd"><svg t="1672330427004" class="icon" viewBox="0 0 1024 1024" version="1.1" xmlns="http://www.w3.org/2000/svg" p-id="1250" width="16" height="16" xmlns:xlink="http://www.w3.org/1999/xlink"><path d="M508.3136 512.9728l312.1664-269.056c-75.5712-87.6032-187.3408-143.1552-312.1664-143.1552-227.6864 0-412.2624 184.576-412.2624 412.2624s184.576 412.2624 412.2624 412.2624c140.3392 0 264.192-70.1952 338.6368-177.2544l-338.6368-235.0592z" fill="#F67096" p-id="1251"></path><path d="M700.1088 504.8832m-62.8224 0a62.8224 62.8224 0 1 0 125.6448 0 62.8224 62.8224 0 1 0-125.6448 0Z" fill="#F52F67" p-id="1252"></path><path d="M861.4912 504.8832m-62.8224 0a62.8224 62.8224 0 1 0 125.6448 0 62.8224 62.8224 0 1 0-125.6448 0Z" fill="#F55E88" p-id="1253"></path><path d="M525.5168 201.1648c-195.7888 0-362.752 116.0704-427.9808 279.2448-0.8192 10.752-1.3824 21.6064-1.3824 32.6144 0 227.6864 184.576 412.2624 412.2624 412.2624 140.3392 0 264.192-70.1952 338.6368-177.2544L508.416 513.0752l274.7904-236.8512c-73.4208-47.36-162.1504-75.0592-257.6896-75.0592z" fill="#F55E88" p-id="1254"></path><path d="M922.1632 521.0624a436.77184 436.77184 0 0 0-61.696-78.9504c-34.2016 0.5632-61.7984 28.416-61.7984 62.7712 0 34.7136 28.1088 62.8224 62.8224 62.8224 29.1328 0 53.504-19.8144 60.672-46.6432zM525.5168 304.3328c-192.6144 0-357.2736 112.3328-424.704 271.2576 30.1568 197.9904 201.1136 349.6448 407.5008 349.6448 140.3392 0 264.192-70.1952 338.6368-177.2544L508.3136 513.024l200.2432-172.5952c-56.0128-23.1936-117.9136-36.096-183.04-36.096z" fill="#F54B7B" p-id="1255"></path><path d="M799.744 493.6192c-0.6656 3.6352-1.0752 7.424-1.0752 11.264 0 34.7136 28.1088 62.8224 62.8224 62.8224 6.0928 0 11.9808-0.9216 17.5104-2.5088a445.53216 445.53216 0 0 0-79.2576-71.5776zM525.5168 407.4496c-178.2272 0-332.544 96.256-408.0128 236.544 54.784 163.4304 208.9984 281.2416 390.8608 281.2416 140.3392 0 264.192-70.1952 338.6368-177.2544L508.3648 513.024l111.6672-96.256a482.24256 482.24256 0 0 0-94.5152-9.3184z" fill="#F52F67" p-id="1256"></path><path d="M640.3584 524.3392c8.192 25.1392 31.8464 43.3664 59.6992 43.3664 12.3392 0 23.8592-3.6352 33.5872-9.7792-29.3888-14.2336-60.5696-25.6-93.2864-33.5872zM510.6688 510.976c-153.5488 4.608-287.9488 80.5376-367.2064 193.8944 69.0176 131.0208 206.4896 220.3648 364.8512 220.3648 140.3392 0 264.192-70.1952 338.6368-177.2544L508.3136 513.024l2.3552-2.048z" fill="#F2145E" p-id="1257"></path><path d="M531.0976 287.7952m-55.9104 0a55.9104 55.9104 0 1 0 111.8208 0 55.9104 55.9104 0 1 0-111.8208 0Z" fill="#FFFFFF" p-id="1258"></path></svg>